<?xml version="1.0" encoding="utf-8"?>
<!-- Generator: Adobe Illustrator 24.3.0, SVG Export Plug-In . SVG Version: 6.00 Build 0)  -->
<svg version="1.1" id="Layer_1" xmlns="http://www.w3.org/2000/svg" xmlns:xlink="http://www.w3.org/1999/xlink" x="0px" y="0px"
	 viewBox="0 0 300 300" enable-background="new 0 0 300 300" xml:space="preserve">
<g>
	<path fill="#231F20" stroke="#B86D2A" stroke-width="1.3429" stroke-miterlimit="10" d="M149.132,186.194"/>
	<g>
		<path fill="#231F20" d="M156.615,163.853c-0.7-0.059-1.414-0.227-2.097-0.142c-0.518,0.065-1.224,0.322-1.45,0.719
			c-0.917,1.612-1.386,3.362-1.318,5.264c0.093,2.611,1.107,3.835,3.661,4.418c2.597,0.593,5.088-0.066,7.491-0.762
			c4.482-1.298,8.738-3.228,12.775-5.579c2.924-1.703,5.764-3.552,8.646-5.328c0.357-0.22,0.751-0.549,1.12-0.539
			c0.463,0.012,0.918,0.322,1.377,0.503c-0.194,0.434-0.269,1.056-0.604,1.271c-1.6,1.027-3.255,1.973-4.919,2.895
			c-3.947,2.187-7.815,4.549-11.897,6.45c-3.333,1.552-6.796,3.009-10.561,3.255c-1.4,0.092-2.911,0.238-4.201-0.174
			c-1.848-0.591-3.517-1.565-4.339-3.669c-0.924-2.365-0.916-4.562,0.05-6.869c0.613-1.465,0.088-2.078-1.433-2.427
			c-2.572-0.59-4.868-1.841-7.036-3.325c-0.262-0.179-0.505-0.385-0.76-0.575c-0.666-0.496-1.143-0.334-1.538,0.38
			c-1.348,2.438-2.638,4.913-4.098,7.284c-2.648,4.3-5.466,8.482-9.399,11.766c-0.876,0.731-1.665,0.65-2.322-0.274
			c-0.907-1.275-1.199-2.659-0.956-4.214c0.358-2.293,0.652-4.596,0.914-6.902c0.05-0.441-0.17-0.914-0.266-1.372
			c-0.467,0.185-1.058,0.247-1.383,0.574c-2.479,2.496-5.602,3.9-8.766,5.203c-2.517,1.036-4.085,0.656-5.606-0.972
			c-0.905-0.969-0.85-2.089-0.8-3.272c0.026-0.622-0.158-1.253-0.247-1.881c-0.555,0.321-1.178,0.564-1.654,0.976
			c-3.05,2.642-6.248,5.066-9.876,6.87c-1.438,0.715-2.927,0.201-3.682-1.238c-0.626-1.193-0.477-2.39,0.019-3.579
			c0.136-0.325,0.352-0.632,0.414-0.968c0.058-0.32-0.038-0.668-0.067-1.003c-0.325,0.036-0.699-0.02-0.967,0.123
			c-2.114,1.128-4.163,2.387-6.319,3.425c-2.442,1.177-4.932,2.287-7.485,3.189c-1.224,0.432-2.644,0.457-3.968,0.416
			c-1.5-0.047-2.543-0.876-2.977-2.414c-0.77-2.727-0.322-5.306,0.867-7.796c1.251-2.622,2.646-5.176,4.865-7.115
			c1.586-1.386,3.22-2.8,5.604-2.504c1.111,0.138,2.986,2.232,2.918,3.351c-0.056,0.916-0.995,1.415-1.78,0.86
			c-0.437-0.309-0.741-0.828-1.051-1.288c-0.641-0.952-1.222-1.119-2.238-0.589c-1.901,0.991-3.209,2.608-4.524,4.232
			c-1.607,1.985-2.03,4.468-2.935,6.748c-0.039,0.097-0.064,0.205-0.071,0.309c-0.091,1.371-0.406,2.909,0.763,3.889
			c1.303,1.092,2.968,0.639,4.35,0.097c2.98-1.168,5.992-2.345,8.774-3.906c3.899-2.187,7.596-4.734,11.39-7.11
			c1.164-0.729,2.296-1.569,3.558-2.065c2.371-0.931,4.63-0.697,6.535,1.231c1.41,1.426,1.481,1.417,3.008,0.074
			c0.847-0.745,1.646-1.544,2.5-2.28c0.501-0.431,1.135-0.771,1.702-0.19c0.61,0.625,0.321,1.309-0.157,1.903
			c-0.861,1.069-1.705,2.154-2.611,3.184c-1.293,1.471-2.054,3.167-2.426,5.08c-0.28,1.436,0.844,2.666,2.31,2.487
			c2.449-0.298,4.632-1.267,6.588-2.703c2.189-1.607,4.312-3.308,6.414-5.029c0.432-0.353,0.752-0.938,0.939-1.48
			c0.864-2.498,1.673-5.016,2.477-7.535c0.237-0.742,0.647-1.098,1.414-0.792c0.744,0.297,0.868,0.87,0.566,1.561
			c-0.282,0.647-0.627,1.27-0.866,1.931c-0.37,1.022-0.683,2.064-1,3.104c-0.102,0.336-0.128,0.695-0.214,1.037
			c-0.681,2.696-1.397,5.384-2.04,8.089c-0.236,0.991-0.305,2.021-0.452,3.033c-0.167,1.149-0.407,2.295-0.471,3.45
			c-0.028,0.519,0.138,1.242,0.495,1.547c0.595,0.509,1.051-0.116,1.477-0.555c3.8-3.913,6.524-8.589,9.303-13.215
			c1.158-1.927,2.06-4.011,3.025-6.049c0.201-0.424,0.196-0.956,0.237-1.443c0.074-0.878,0.06-1.767,0.18-2.638
			c0.118-0.854,0.735-1.308,1.56-1.292c0.878,0.018,1.074,0.747,1.064,1.439c-0.01,0.698-0.113,1.414-0.305,2.084
			c-0.389,1.359,0.048,2.342,1.043,3.302c2.299,2.218,5.162,3.147,8.179,3.637c0.629,0.102,1.519-0.483,2.069-0.99
			c1.861-1.713,3.761-3.279,6.282-3.97c1.688-0.463,3.228-0.196,4.708,0.57c1.12,0.58,1.341,1.582,0.67,2.686
			c-1.592,2.618-4.127,3.613-6.999,3.994c-0.381,0.051-0.775,0.007-1.163,0.007C156.619,163.775,156.617,163.814,156.615,163.853z
			 M94.642,171.539c0.215-0.103,0.604-0.26,0.966-0.466c3.771-2.142,6.975-5.016,10.164-7.906c0.748-0.678,0.698-1.312-0.053-1.969
			c-1.358-1.187-3.376-1.539-4.932-0.608c-1.345,0.805-2.558,1.839-3.785,2.826c-2.084,1.676-2.848,4.139-3.697,6.516
			C92.984,170.828,93.616,171.566,94.642,171.539z M157.357,161.757c1.476-0.54,3.007-1.028,4.465-1.68
			c0.399-0.179,0.578-0.85,0.858-1.296c-0.515-0.197-1.102-0.659-1.531-0.542c-1.51,0.412-2.988,0.97-4.426,1.594
			c-0.391,0.17-0.595,0.77-0.885,1.172C156.28,161.224,156.721,161.442,157.357,161.757z"/>
		<path fill="#231F20" d="M124.968,179.649c-0.07,0-0.139-0.005-0.208-0.014c-0.525-0.068-0.996-0.39-1.399-0.959
			c-0.969-1.363-1.309-2.859-1.041-4.575c0.323-2.07,0.613-4.257,0.911-6.882c0.022-0.19-0.044-0.432-0.118-0.689
			c-0.277,0.08-0.562,0.163-0.692,0.294c-2.534,2.552-5.669,3.969-8.928,5.312c-2.599,1.068-4.438,0.743-6.153-1.092
			c-1.039-1.113-0.985-2.38-0.933-3.604c0.016-0.373-0.049-0.743-0.122-1.132c-0.359,0.185-0.696,0.363-0.964,0.595
			c-3.703,3.208-6.781,5.348-9.979,6.939c-1.666,0.829-3.452,0.235-4.336-1.45c-0.624-1.19-0.624-2.497,0.001-3.997
			c0.052-0.125,0.114-0.247,0.177-0.369c0.092-0.18,0.18-0.35,0.206-0.498c0.021-0.111,0.008-0.252-0.012-0.403
			c-0.126,0.004-0.245,0.014-0.305,0.046c-0.785,0.419-1.56,0.856-2.336,1.292c-1.295,0.73-2.634,1.483-4,2.142
			c-2.899,1.398-5.293,2.417-7.535,3.21c-1.312,0.464-2.834,0.483-4.147,0.443c-1.726-0.053-2.946-1.037-3.436-2.772
			c-0.747-2.649-0.453-5.311,0.897-8.141c1.433-3.004,2.829-5.391,4.985-7.274c1.581-1.381,3.373-2.941,5.988-2.622
			c1.396,0.173,3.43,2.523,3.348,3.869c-0.038,0.624-0.378,1.148-0.911,1.403c-0.524,0.251-1.137,0.186-1.644-0.172
			c-0.45-0.319-0.767-0.797-1.045-1.22l-0.13-0.195c-0.504-0.751-0.819-0.835-1.603-0.428c-1.809,0.944-3.051,2.478-4.366,4.102
			c-1.087,1.343-1.601,2.914-2.146,4.578c-0.221,0.674-0.449,1.371-0.717,2.045c-0.02,0.053-0.034,0.109-0.037,0.161
			c-0.011,0.177-0.028,0.357-0.043,0.539c-0.099,1.156-0.193,2.248,0.632,2.938c1.096,0.918,2.564,0.524,3.854,0.016l0.086-0.033
			c2.901-1.138,5.902-2.314,8.627-3.843c2.629-1.475,5.215-3.146,7.715-4.761c1.215-0.785,2.429-1.57,3.654-2.337
			c0.27-0.17,0.54-0.345,0.81-0.522c0.894-0.583,1.817-1.186,2.829-1.584c2.701-1.061,5.146-0.599,7.065,1.343
			c1.11,1.123,1.11,1.126,2.334,0.05c0.389-0.341,0.767-0.694,1.144-1.048c0.448-0.418,0.896-0.836,1.36-1.235
			c1.194-1.029,2-0.544,2.375-0.162c0.483,0.495,0.853,1.34-0.126,2.555l-0.545,0.681c-0.668,0.835-1.359,1.699-2.08,2.52
			c-1.183,1.346-1.939,2.932-2.313,4.849c-0.104,0.533,0.036,1.053,0.383,1.426c0.344,0.369,0.849,0.543,1.386,0.479
			c2.226-0.271,4.365-1.149,6.356-2.611c2.295-1.684,4.519-3.48,6.393-5.013c0.31-0.254,0.597-0.713,0.785-1.26
			c0.858-2.481,1.659-4.974,2.473-7.524c0.185-0.577,0.461-0.945,0.845-1.126c0.35-0.165,0.761-0.156,1.22,0.028
			c0.46,0.183,0.772,0.466,0.926,0.842c0.164,0.398,0.134,0.86-0.09,1.373c-0.108,0.247-0.224,0.49-0.341,0.733
			c-0.191,0.4-0.372,0.778-0.514,1.17c-0.335,0.926-0.629,1.89-0.913,2.823l-0.079,0.257c-0.05,0.166-0.079,0.34-0.109,0.514
			c-0.028,0.168-0.057,0.335-0.099,0.5c-0.22,0.872-0.445,1.744-0.668,2.616c-0.468,1.82-0.935,3.639-1.37,5.467
			c-0.154,0.648-0.233,1.308-0.317,2.007c-0.04,0.328-0.079,0.657-0.127,0.984c-0.049,0.339-0.105,0.679-0.161,1.019
			c-0.129,0.785-0.262,1.597-0.304,2.386c-0.024,0.435,0.13,0.981,0.323,1.146c0.121,0.105,0.172,0.151,0.66-0.371l0.143-0.151
			c3.565-3.671,6.229-8.115,8.806-12.412l0.428-0.713c0.908-1.511,1.674-3.157,2.414-4.749c0.195-0.42,0.391-0.84,0.589-1.258
			c0.123-0.26,0.147-0.613,0.171-0.987l0.021-0.287c0.029-0.343,0.044-0.688,0.059-1.033c0.023-0.532,0.048-1.083,0.123-1.63
			c0.147-1.065,0.934-1.716,2.058-1.717c0.473,0.01,1.57,0.217,1.546,1.937c-0.011,0.746-0.123,1.511-0.324,2.213
			c-0.308,1.076-0.044,1.891,0.912,2.813c1.914,1.847,4.356,2.928,7.915,3.505c0.358,0.06,1.062-0.317,1.658-0.866
			c1.804-1.661,3.792-3.344,6.484-4.083c1.713-0.468,3.369-0.27,5.065,0.608c0.649,0.336,1.079,0.82,1.241,1.4
			c0.171,0.608,0.04,1.292-0.377,1.979c-1.466,2.412-3.804,3.755-7.355,4.227c-0.262,0.035-0.519,0.031-0.766,0.023l-0.009,0.145
			l-0.501-0.042c-0.219-0.019-0.438-0.047-0.657-0.076c-0.475-0.062-0.923-0.12-1.338-0.068c-0.501,0.063-0.985,0.302-1.083,0.474
			c-0.894,1.572-1.316,3.256-1.254,5.004c0.085,2.387,0.943,3.422,3.279,3.955c2.395,0.545,4.698-0.018,7.245-0.755
			c4.177-1.21,8.438-3.071,12.664-5.532c1.934-1.126,3.866-2.339,5.735-3.512c0.965-0.606,1.931-1.212,2.901-1.81
			c0.07-0.043,0.14-0.09,0.212-0.138c0.334-0.223,0.713-0.475,1.148-0.475c0.011,0,0.02,0,0.03,0
			c0.428,0.011,0.819,0.198,1.162,0.364c0.128,0.062,0.255,0.123,0.382,0.173l0.479,0.189l-0.211,0.469
			c-0.053,0.121-0.096,0.259-0.14,0.396c-0.126,0.396-0.268,0.844-0.646,1.088c-1.707,1.096-3.458,2.087-4.948,2.911
			c-1.078,0.598-2.15,1.208-3.222,1.819c-2.813,1.602-5.722,3.258-8.706,4.647c-3.284,1.529-6.817,3.044-10.737,3.3l-0.338,0.023
			c-1.362,0.094-2.769,0.189-4.045-0.219c-1.522-0.487-3.658-1.428-4.648-3.96c-0.98-2.509-0.962-4.808,0.055-7.238
			c0.218-0.52,0.267-0.901,0.149-1.132c-0.134-0.26-0.539-0.465-1.239-0.626c-2.296-0.526-4.586-1.606-7.204-3.399
			c-0.171-0.117-0.334-0.245-0.498-0.372l-0.279-0.214c-0.185-0.138-0.343-0.202-0.441-0.185c-0.105,0.023-0.241,0.172-0.372,0.409
			c-0.346,0.625-0.687,1.253-1.029,1.88c-0.978,1.795-1.989,3.65-3.081,5.424c-2.423,3.934-5.355,8.421-9.503,11.885
			C125.917,179.446,125.436,179.649,124.968,179.649z M123.816,165.232l0.12,0.572c0.028,0.132,0.066,0.266,0.105,0.399
			c0.1,0.341,0.213,0.728,0.168,1.128c-0.3,2.639-0.592,4.838-0.917,6.923c-0.227,1.449,0.058,2.71,0.871,3.853
			c0.239,0.336,0.483,0.522,0.725,0.554c0.248,0.033,0.547-0.092,0.881-0.372c4.033-3.369,6.913-7.778,9.295-11.646
			c1.079-1.751,2.083-3.595,3.054-5.379c0.343-0.629,0.685-1.258,1.032-1.885c0.284-0.514,0.619-0.807,1.026-0.894
			c0.39-0.086,0.805,0.036,1.236,0.358c0.1,0.074,0.198,0.151,0.296,0.228c0.147,0.115,0.295,0.231,0.449,0.336
			c2.513,1.72,4.695,2.753,6.868,3.251c0.692,0.159,1.532,0.431,1.894,1.135c0.261,0.509,0.223,1.15-0.117,1.962
			c-0.912,2.179-0.926,4.245-0.045,6.5c0.645,1.652,1.889,2.694,4.031,3.381c1.096,0.349,2.408,0.261,3.678,0.174l0.34-0.023
			c3.75-0.245,7.187-1.721,10.387-3.211c2.947-1.372,5.838-3.018,8.634-4.61c1.075-0.612,2.151-1.225,3.233-1.824
			c1.475-0.817,3.209-1.798,4.893-2.878c0.079-0.051,0.184-0.381,0.24-0.558c0.004-0.013,0.008-0.026,0.012-0.038
			c-0.003-0.002-0.006-0.003-0.011-0.005c-0.279-0.134-0.544-0.261-0.762-0.267c-0.101,0.017-0.408,0.178-0.607,0.31
			c-0.081,0.054-0.162,0.108-0.24,0.156c-0.968,0.596-1.932,1.201-2.895,1.806c-1.875,1.177-3.815,2.394-5.762,3.529
			c-4.297,2.501-8.631,4.395-12.886,5.626c-2.679,0.776-5.11,1.368-7.737,0.769c-2.771-0.632-3.942-2.045-4.043-4.879
			c-0.068-1.934,0.397-3.792,1.382-5.525c0.356-0.626,1.309-0.9,1.817-0.964c0.541-0.066,1.072,0.002,1.586,0.069
			c0.037,0.005,0.074,0.01,0.113,0.015l0.003-0.063h0.462c0.129,0,0.257,0.004,0.387,0.009c0.253,0.008,0.492,0.017,0.711-0.012
			c3.277-0.435,5.327-1.596,6.644-3.763c0.189-0.312,0.39-0.774,0.27-1.202c-0.088-0.315-0.339-0.581-0.746-0.792
			c-1.467-0.76-2.892-0.933-4.352-0.532c-2.48,0.68-4.363,2.278-6.079,3.858c-0.329,0.302-1.485,1.28-2.481,1.113
			c-3.77-0.611-6.374-1.773-8.442-3.768c-1.224-1.181-1.586-2.35-1.174-3.791c0.177-0.62,0.276-1.297,0.287-1.956
			c0.013-0.928-0.374-0.935-0.582-0.939c-0.347-0.02-0.956,0.095-1.063,0.868c-0.069,0.501-0.092,1.005-0.115,1.539
			c-0.016,0.358-0.032,0.716-0.062,1.073l-0.019,0.268c-0.028,0.429-0.06,0.914-0.263,1.343c-0.197,0.416-0.391,0.834-0.585,1.251
			c-0.751,1.615-1.528,3.284-2.462,4.84l-0.428,0.712c-2.605,4.346-5.299,8.839-8.944,12.592l-0.131,0.138
			c-0.367,0.391-1.132,1.207-2.018,0.446c-0.507-0.432-0.7-1.313-0.666-1.947c0.046-0.843,0.184-1.681,0.317-2.492
			c0.054-0.334,0.109-0.668,0.158-1.002c0.046-0.319,0.085-0.64,0.123-0.96c0.084-0.695,0.171-1.414,0.338-2.116
			c0.436-1.833,0.905-3.659,1.374-5.484c0.223-0.87,0.447-1.741,0.667-2.612c0.036-0.139,0.059-0.281,0.083-0.423
			c0.036-0.215,0.074-0.429,0.137-0.636l0.079-0.258c0.287-0.945,0.585-1.922,0.93-2.871c0.159-0.438,0.359-0.856,0.552-1.259
			c0.111-0.233,0.223-0.465,0.326-0.701c0.078-0.178,0.155-0.428,0.083-0.605c-0.049-0.119-0.177-0.221-0.381-0.302
			c-0.134-0.054-0.32-0.108-0.436-0.051c-0.118,0.055-0.234,0.246-0.326,0.536c-0.816,2.555-1.62,5.055-2.481,7.545
			c-0.145,0.419-0.479,1.198-1.092,1.7c-1.883,1.542-4.122,3.347-6.435,5.045c-2.128,1.563-4.423,2.503-6.819,2.794
			c-0.849,0.104-1.663-0.183-2.224-0.785c-0.564-0.606-0.793-1.439-0.628-2.284c0.407-2.093,1.238-3.83,2.539-5.311
			c0.706-0.803,1.39-1.658,2.05-2.484l0.547-0.683c0.636-0.791,0.344-1.09,0.187-1.251c-0.132-0.136-0.352-0.363-1.029,0.22
			c-0.453,0.39-0.892,0.8-1.329,1.209c-0.385,0.36-0.771,0.72-1.167,1.068c-1.723,1.514-2.101,1.503-3.683-0.097
			c-1.643-1.662-3.663-2.039-6.006-1.119c-0.917,0.361-1.798,0.936-2.651,1.492c-0.275,0.179-0.549,0.359-0.826,0.532
			c-1.22,0.764-2.431,1.547-3.641,2.329c-2.513,1.624-5.113,3.303-7.769,4.793c-2.784,1.562-5.816,2.751-8.749,3.901l-0.086,0.033
			c-1.471,0.577-3.349,1.075-4.846-0.177c-1.216-1.019-1.091-2.484-0.98-3.777c0.015-0.176,0.03-0.35,0.041-0.521
			c0.011-0.155,0.047-0.313,0.105-0.459c0.257-0.645,0.48-1.328,0.696-1.987c0.549-1.676,1.116-3.408,2.314-4.888
			c1.323-1.634,2.688-3.32,4.678-4.359c1.231-0.64,2.09-0.415,2.875,0.75l0.134,0.203c0.242,0.367,0.493,0.747,0.793,0.959
			c0.216,0.153,0.448,0.184,0.65,0.088c0.206-0.099,0.338-0.314,0.355-0.576c0.051-0.843-1.6-2.723-2.488-2.833
			c-2.185-0.272-3.724,1.08-5.219,2.386c-2.028,1.772-3.364,4.063-4.745,6.957c-1.243,2.605-1.517,5.042-0.837,7.45
			c0.373,1.324,1.221,2.016,2.519,2.056c1.219,0.037,2.629,0.022,3.789-0.388c2.207-0.78,4.569-1.786,7.434-3.168
			c1.339-0.645,2.663-1.391,3.945-2.113c0.782-0.441,1.564-0.881,2.356-1.304c0.286-0.153,0.595-0.16,0.869-0.165
			c0.092-0.002,0.185-0.003,0.274-0.013l0.501-0.056l0.044,0.502c0.008,0.092,0.022,0.185,0.036,0.279
			c0.038,0.26,0.081,0.553,0.026,0.855c-0.053,0.292-0.185,0.547-0.3,0.771c-0.051,0.099-0.102,0.198-0.144,0.299
			c-0.513,1.229-0.525,2.233-0.038,3.161c0.639,1.22,1.828,1.622,3.028,1.026c3.121-1.551,6.135-3.65,9.772-6.801
			c0.371-0.321,0.798-0.541,1.211-0.753c0.175-0.09,0.35-0.18,0.519-0.277l0.631-0.365l0.102,0.721
			c0.027,0.188,0.062,0.376,0.098,0.564c0.086,0.453,0.175,0.921,0.154,1.407c-0.049,1.14-0.089,2.104,0.668,2.916
			c1.445,1.546,2.816,1.776,5.06,0.853c3.161-1.303,6.199-2.673,8.604-5.095c0.312-0.314,0.745-0.439,1.127-0.549
			c0.145-0.042,0.291-0.083,0.424-0.136L123.816,165.232z M94.586,172.031c-0.662,0-1.23-0.261-1.564-0.721
			c-0.313-0.431-0.379-0.993-0.182-1.542l0.169-0.477c0.801-2.265,1.629-4.606,3.682-6.258l0.548-0.443
			c1.042-0.845,2.119-1.719,3.293-2.422c1.661-0.993,3.927-0.723,5.509,0.66c0.498,0.436,0.753,0.896,0.758,1.368
			c0.004,0.462-0.231,0.912-0.698,1.335c-2.975,2.696-6.347,5.752-10.252,7.969c-0.276,0.157-0.567,0.287-0.793,0.389l-0.403,0.141
			C94.632,172.031,94.609,172.031,94.586,172.031z M102.753,160.554c-0.607,0-1.198,0.15-1.714,0.458
			c-1.114,0.666-2.164,1.518-3.178,2.341l-0.551,0.446c-1.836,1.476-2.582,3.586-3.372,5.819l-0.17,0.479
			c-0.088,0.246-0.07,0.466,0.052,0.634c0.139,0.192,0.397,0.304,0.717,0.314l0.121-0.055c0.202-0.09,0.462-0.206,0.709-0.346
			c3.811-2.164,7.14-5.181,10.077-7.842c0.172-0.156,0.377-0.386,0.375-0.598c-0.002-0.223-0.231-0.47-0.422-0.636
			C104.631,160.901,103.676,160.554,102.753,160.554z M157.328,162.291l-2.226-1.102l0.338-0.47c0.08-0.113,0.153-0.243,0.227-0.372
			c0.206-0.366,0.441-0.781,0.861-0.964c1.629-0.708,3.098-1.237,4.492-1.618c0.483-0.131,0.964,0.121,1.389,0.343
			c0.151,0.079,0.303,0.159,0.448,0.214l0.559,0.214l-0.317,0.507c-0.079,0.125-0.147,0.27-0.217,0.415
			c-0.196,0.409-0.418,0.872-0.857,1.068c-1.079,0.483-2.203,0.879-3.288,1.262c-0.405,0.143-0.809,0.285-1.209,0.432
			L157.328,162.291z M156.538,160.803l0.849,0.42c0.338-0.123,0.679-0.243,1.022-0.364c1.066-0.376,2.17-0.765,3.213-1.232
			c0.109-0.049,0.267-0.378,0.372-0.596c0.004-0.008,0.008-0.017,0.012-0.025c-0.017-0.009-0.035-0.018-0.052-0.027
			c-0.199-0.103-0.577-0.294-0.675-0.266c-1.347,0.368-2.773,0.882-4.359,1.571C156.807,160.334,156.655,160.597,156.538,160.803z"
			/>
	</g>
	<g>
		<g>
			<path fill="#231F20" d="M195.257,145.67c-0.936-0.309-2.172-0.612-3.32-1.116c-2.902-1.275-3.846-5.345-2.764-8.111
				c0.757-1.935,1.434-3.855,2.848-5.427c1.752-1.948,3.809-3.369,6.43-3.871c1.273-0.244,2.454,0.088,3.561,0.637
				c1.136,0.562,1.289,1.664,0.483,2.786c-1.544,2.15-3.753,3.095-6.288,3.355c-0.921,0.094-1.868-0.093-2.796-0.037
				c-0.465,0.028-1.136,0.18-1.333,0.507c-1.224,2.031-1.749,4.217-1.077,6.583c0.308,1.085,1.008,1.828,2.042,2.166
				c1.388,0.453,2.792,0.526,4.287,0.345c3.556-0.431,6.811-1.755,9.997-3.21c2.899-1.324,5.669-2.941,8.447-4.516
				c1.71-0.97,3.325-2.108,4.99-3.159c0.268-0.169,0.595-0.416,0.86-0.379c0.432,0.06,0.836,0.324,1.252,0.502
				c-0.182,0.397-0.255,0.985-0.564,1.162c-4.532,2.601-9.02,5.298-13.679,7.653c-2.858,1.444-5.963,2.424-9.012,3.452
				C198.362,145.417,196.961,145.421,195.257,145.67z M195.895,132.144c1.418-0.551,2.863-1.061,4.252-1.693
				c0.299-0.136,0.397-0.716,0.587-1.091c-0.377-0.178-0.761-0.521-1.13-0.506c-1.579,0.067-3.026,0.629-4.328,1.505
				c-0.328,0.221-0.492,0.685-0.731,1.038C194.933,131.611,195.321,131.826,195.895,132.144z"/>
			<path fill="#231F20" d="M195.218,146.131l-0.101-0.033c-0.274-0.09-0.572-0.18-0.887-0.274c-0.768-0.23-1.639-0.491-2.473-0.857
				c-3.126-1.373-4.163-5.719-3.003-8.688l0.177-0.452c0.687-1.771,1.398-3.601,2.757-5.112c1.998-2.222,4.182-3.534,6.679-4.012
				c1.224-0.233,2.443-0.019,3.846,0.676c0.629,0.312,1.038,0.783,1.182,1.363c0.163,0.653-0.022,1.376-0.534,2.089
				c-1.492,2.079-3.654,3.237-6.608,3.54c-0.53,0.053-1.058,0.022-1.571-0.009c-0.432-0.026-0.839-0.051-1.244-0.026
				c-0.5,0.03-0.912,0.192-0.974,0.289c-1.28,2.124-1.616,4.161-1.029,6.228c0.268,0.944,0.857,1.57,1.748,1.861
				c1.254,0.41,2.555,0.513,4.093,0.326c3.296-0.399,6.327-1.557,9.864-3.172c2.556-1.167,5.058-2.591,7.477-3.967l0.934-0.531
				c1.108-0.628,2.2-1.344,3.256-2.037c0.57-0.374,1.14-0.748,1.717-1.111l0.109-0.07c0.293-0.191,0.666-0.429,1.053-0.374
				c0.377,0.052,0.705,0.215,1.024,0.371c0.114,0.057,0.229,0.113,0.344,0.163l0.424,0.182l-0.193,0.419
				c-0.051,0.111-0.091,0.238-0.132,0.366c-0.12,0.371-0.255,0.791-0.616,0.998c-0.97,0.557-1.939,1.118-2.907,1.679
				c-3.501,2.03-7.12,4.128-10.793,5.984c-2.575,1.302-5.369,2.237-8.072,3.142l-0.999,0.335c-0.894,0.301-1.857,0.402-2.875,0.51
				c-0.494,0.052-1.015,0.106-1.568,0.187L195.218,146.131z M199.308,127.513c-0.26,0-0.517,0.025-0.772,0.074
				c-2.297,0.44-4.318,1.66-6.18,3.73c-1.249,1.389-1.899,3.063-2.587,4.836l-0.177,0.454c-1.012,2.589-0.147,6.361,2.526,7.536
				c0.782,0.344,1.625,0.596,2.369,0.819c0.285,0.085,0.557,0.167,0.81,0.249c0.527-0.074,1.025-0.127,1.5-0.177
				c1.01-0.106,1.883-0.198,2.681-0.467l1.002-0.336c2.672-0.895,5.435-1.82,7.951-3.092c3.65-1.845,7.259-3.937,10.749-5.96
				c0.969-0.562,1.939-1.124,2.909-1.681c0.066-0.051,0.155-0.328,0.208-0.494c0.005-0.015,0.011-0.031,0.015-0.047
				c-0.001,0-0.001,0-0.001,0c-0.266-0.131-0.516-0.255-0.748-0.287c-0.08,0.003-0.313,0.155-0.438,0.236l-0.12,0.078
				c-0.573,0.361-1.138,0.732-1.704,1.102c-1.068,0.7-2.172,1.424-3.305,2.067l-0.933,0.53c-2.437,1.386-4.957,2.82-7.549,4.003
				c-3.614,1.65-6.719,2.833-10.13,3.247c-1.65,0.199-3.116,0.081-4.48-0.364c-1.178-0.384-1.986-1.239-2.336-2.471
				c-0.658-2.32-0.291-4.59,1.125-6.938c0.359-0.598,1.385-0.705,1.691-0.724c0.458-0.028,0.913,0,1.353,0.027
				c0.497,0.03,0.967,0.059,1.424,0.012c2.683-0.275,4.635-1.312,5.97-3.169c0.347-0.485,0.487-0.963,0.391-1.347
				c-0.079-0.32-0.317-0.58-0.709-0.774C200.9,127.733,200.087,127.513,199.308,127.513z M195.862,132.64l-1.965-1.088l0.276-0.408
				c0.068-0.1,0.128-0.21,0.189-0.32c0.163-0.294,0.348-0.627,0.663-0.839c1.46-0.983,2.994-1.515,4.56-1.581
				c0.363-0.011,0.727,0.189,1.025,0.37c0.105,0.064,0.211,0.129,0.316,0.179l0.418,0.198l-0.209,0.413
				c-0.053,0.103-0.096,0.225-0.14,0.347c-0.134,0.365-0.286,0.779-0.662,0.951c-1.032,0.47-2.105,0.877-3.143,1.271
				c-0.378,0.143-0.756,0.286-1.132,0.432L195.862,132.64z M195.169,131.227l0.761,0.421c0.313-0.121,0.627-0.24,0.941-0.359
				c1.024-0.388,2.084-0.79,3.09-1.248c0.044-0.043,0.134-0.292,0.189-0.441c0.005-0.015,0.011-0.029,0.015-0.044
				c-0.007-0.004-0.015-0.009-0.022-0.013c-0.177-0.107-0.395-0.24-0.513-0.24c-0.002,0-0.005,0-0.006,0
				c-1.397,0.059-2.775,0.539-4.096,1.428C195.399,130.819,195.282,131.023,195.169,131.227z"/>
		</g>
		<g>
			<path fill="#231F20" d="M81.768,124.823c-0.265-0.037-0.593,0.21-0.86,0.379c-1.665,1.051-3.28,2.189-4.99,3.159
				c-2.778,1.575-5.548,3.192-8.447,4.516c-3.186,1.455-6.441,2.779-9.997,3.21c-1.496,0.181-2.899,0.108-4.287-0.345
				c-0.848-0.277-1.457-0.84-1.824-1.628c-0.637,0.079-1.278,0.127-1.922,0.134c0.517,1.267,1.383,2.355,2.64,2.907
				c1.148,0.504,2.384,0.807,3.32,1.116c1.704-0.249,3.105-0.253,4.365-0.678c3.048-1.028,6.154-2.008,9.012-3.452
				c4.659-2.355,9.147-5.051,13.679-7.653c0.308-0.177,0.381-0.765,0.564-1.162C82.604,125.147,82.201,124.883,81.768,124.823z"/>
			<path fill="#231F20" d="M55.36,138.731l-0.1-0.033c-0.274-0.091-0.574-0.18-0.89-0.275c-0.768-0.23-1.637-0.491-2.47-0.856
				c-1.268-0.557-2.262-1.646-2.875-3.149l-0.249-0.613l0.662-0.007c0.596-0.006,1.225-0.05,1.871-0.13l0.326-0.04l0.138,0.297
				c0.321,0.69,0.845,1.158,1.556,1.39c1.254,0.409,2.555,0.513,4.093,0.326c3.297-0.399,6.328-1.557,9.864-3.172
				c2.553-1.166,5.052-2.588,7.469-3.963l0.943-0.536c1.112-0.63,2.207-1.349,3.266-2.043c0.567-0.371,1.133-0.743,1.705-1.104
				l0.109-0.07c0.294-0.191,0.667-0.43,1.054-0.374l0,0c0.375,0.052,0.703,0.214,1.019,0.37c0.116,0.057,0.231,0.115,0.347,0.164
				l0.426,0.182l-0.194,0.421c-0.052,0.111-0.091,0.24-0.133,0.368c-0.12,0.37-0.254,0.788-0.615,0.996
				c-0.975,0.56-1.947,1.123-2.92,1.687c-3.497,2.027-7.112,4.123-10.78,5.977c-2.577,1.302-5.374,2.238-8.077,3.143l-0.994,0.333
				c-0.894,0.302-1.857,0.403-2.875,0.51c-0.495,0.052-1.015,0.106-1.569,0.187L55.36,138.731z M50.139,134.675
				c0.413,0.771,1.077,1.607,2.123,2.067c0.782,0.344,1.624,0.596,2.366,0.818c0.286,0.086,0.559,0.168,0.812,0.249
				c0.527-0.075,1.026-0.127,1.5-0.177c1.011-0.106,1.883-0.198,2.682-0.467l0.996-0.334c2.674-0.895,5.438-1.82,7.957-3.093
				c3.646-1.842,7.25-3.932,10.735-5.953c0.974-0.564,1.947-1.129,2.923-1.689c0.065-0.051,0.154-0.327,0.207-0.492
				c0.005-0.017,0.011-0.033,0.015-0.049c-0.001,0-0.002-0.001-0.004-0.002c-0.262-0.13-0.51-0.252-0.74-0.285
				c-0.089,0.005-0.32,0.155-0.444,0.236l-0.119,0.077c-0.568,0.358-1.13,0.727-1.692,1.096c-1.071,0.702-2.179,1.429-3.316,2.074
				l-0.942,0.535c-2.434,1.384-4.952,2.816-7.54,3.999c-3.612,1.65-6.717,2.833-10.129,3.247c-1.653,0.199-3.118,0.081-4.481-0.364
				c-0.84-0.274-1.505-0.815-1.94-1.573C50.779,134.632,50.455,134.658,50.139,134.675z"/>
		</g>
		<g>
			<path fill="#231F20" d="M173.945,118.786c-0.046,1.538-2.054,3.542-3.51,3.504c-1.537-0.04-3.472-2.025-3.454-3.543
				c0.016-1.375,2.17-3.341,3.6-3.286C171.885,115.51,173.981,117.582,173.945,118.786z M170.323,117.456
				c-0.732,0.023-1.235,0.582-1.208,1.341c0.026,0.742,0.67,1.385,1.355,1.354c0.707-0.032,1.332-0.721,1.289-1.422
				C171.715,118.007,171.067,117.433,170.323,117.456z"/>
			<path fill="#231F20" d="M170.473,122.74c-0.016,0-0.033,0-0.05-0.001c-1.766-0.046-3.913-2.25-3.893-3.998
				c0.009-0.746,0.492-1.628,1.324-2.42c0.896-0.852,1.93-1.345,2.743-1.311c1.57,0.06,3.841,2.326,3.798,3.789
				C174.342,120.557,172.158,122.74,170.473,122.74z M170.521,115.909c-0.565,0-1.362,0.413-2.047,1.064
				c-0.638,0.608-1.038,1.289-1.044,1.779c-0.015,1.265,1.733,3.054,3.016,3.088c0.011,0,0.022,0,0.032,0
				c1.214,0,2.978-1.786,3.016-3.068v0c0.029-0.95-1.889-2.822-2.931-2.862C170.549,115.909,170.535,115.909,170.521,115.909z
				 M170.422,120.602c-0.409,0-0.811-0.164-1.139-0.467c-0.374-0.345-0.599-0.828-0.617-1.322c-0.018-0.497,0.144-0.953,0.455-1.286
				c0.3-0.321,0.722-0.506,1.188-0.521l0,0c1.018-0.036,1.841,0.729,1.9,1.695c0.028,0.452-0.145,0.921-0.475,1.286
				c-0.332,0.369-0.785,0.593-1.244,0.613C170.468,120.602,170.444,120.602,170.422,120.602z M170.337,117.906
				c-0.229,0.007-0.422,0.089-0.56,0.236c-0.147,0.156-0.223,0.383-0.214,0.639c0.01,0.256,0.13,0.509,0.329,0.693
				c0.167,0.154,0.366,0.229,0.557,0.228c0.219-0.01,0.444-0.125,0.615-0.316c0.168-0.187,0.258-0.417,0.245-0.63
				C171.281,118.28,170.845,117.882,170.337,117.906L170.337,117.906z"/>
		</g>
		<g>
			<path fill="#231F20" d="M251.042,94.033c-0.334-0.289-0.751-0.57-1.173-0.656c-2.774-0.565-5.542-1.398-8.343-1.544
				c-7.865-0.411-15.745-0.531-23.619-0.767c-0.002,0.05-0.003,0.099-0.005,0.149c-1.454,0-2.908,0.01-4.362-0.003
				c-1.582-0.014-3.165-0.022-4.744-0.097c-0.342-0.016-0.677-0.196-1.013-0.342l-0.793-0.128l-0.155-0.722l4.899-9.591l1.49-2.76
				c0.008-0.021,0.014-0.043,0.024-0.062c0.696-1.346,1.432-2.676,2.238-3.959c2.3-3.661,4.624-7.306,6.977-10.933
				c0.434-0.669,0.91-1.313,1.401-1.944l1.381-2l-0.258-0.619l-0.836-0.096c-0.071,0.074-0.141,0.148-0.205,0.227
				c-1.534,1.911-3.194,3.747-4.514,5.798c-2.234,3.471-4.289,7.059-6.337,10.645c-1.454,2.545-2.754,5.178-4.158,7.752
				c-1.389,2.546-2.817,5.071-4.239,7.598c-0.596,1.058-1.413,1.634-2.713,1.259c-0.418-0.121-0.898-0.043-1.35-0.034
				c-7.007,0.131-14.015,0.26-21.022,0.402c-4.036,0.082-8.073,0.147-12.107,0.297c-2.414,0.09-4.821,0.359-7.235,0.491
				c-2.415,0.132-4.833,0.212-7.251,0.266c-0.488,0.011-1.13-0.044-1.443-0.341c-0.039-0.037-0.078-0.071-0.116-0.104
				c-0.189,0.049-0.375,0.106-0.56,0.17c0.054-0.005-0.18,0.119-0.377,0.224c-0.008,0.023-0.164,0.149-0.306,0.271
				c-0.02,0.085-0.246,0.447-0.309,0.509c-0.013,0.04-0.028,0.085-0.048,0.142c-0.003,0.015-0.006,0.026-0.009,0.041
				c0.004,0.079,0.005,0.138,0.005,0.176c0.031,0.13,0.065,0.259,0.106,0.386c0.047,0.124,0.077,0.208,0.094,0.257
				c0.222,0.027,0.441,0.07,0.652,0.135c0.003,0.001,0.005,0.002,0.008,0.002c1.259-0.085,2.521-0.199,3.781-0.246
				c3.453-0.127,6.908-0.184,10.362-0.293c4.678-0.148,9.355-0.321,14.032-0.475c2.643-0.087,5.288-0.15,7.931-0.238
				c2.867-0.096,5.733-0.216,8.6-0.312c2.031-0.068,4.062-0.139,6.093-0.149c0.368-0.002,0.904,0.192,1.059,0.467
				c0.142,0.251-0.058,0.767-0.225,1.11c-0.592,1.213-1.253,2.392-1.854,3.601c-2.788,5.606-5.559,11.22-8.347,16.825
				c-2.27,4.563-4.559,9.116-6.827,13.681c-0.243,0.488-0.393,1.023-0.586,1.535c-0.658,1.746-2.027,2.794-3.599,3.624
				c-3.595,1.899-7.168,3.844-10.818,5.632c-1.189,0.582-2.589,0.734-3.4,0.951c-2.38-0.071-2.834-0.651-2.735-2.488
				c0.094-1.734,1.13-3.067,1.744-4.579c0.34-0.837,0.782-1.636,1.074-2.488c0.134-0.391,0.137-0.914-0.011-1.295
				c-0.25-0.642-0.978-0.657-1.382-0.099c-0.038,0.052-0.077,0.108-0.095,0.168c-1.093,3.762-4.357,5.269-7.361,7
				c-1.558,0.898-3.205,1.678-4.886,2.316c-0.998,0.379-2.136,0.449-3.22,0.524c-0.782,0.054-1.411-0.451-1.571-1.202
				c-0.199-0.934-0.347-1.922-0.262-2.864c0.248-2.732,0.691-5.446,0.908-8.179c0.068-0.856-0.209-1.812-0.582-2.602
				c-0.212-0.448-0.944-0.914-1.435-0.908c-0.934,0.012-2.018,0.118-2.77,0.604c-3.547,2.293-7.104,4.594-10.468,7.141
				c-5.283,4-10.047,8.602-14.726,13.289c-0.281,0.282-0.826,0.3-1.249,0.442c-0.018-0.416-0.176-0.891-0.031-1.24
				c1.203-2.915,2.486-5.797,3.697-8.708c0.962-2.311,1.799-4.675,2.798-6.969c1.261-2.895,2.627-5.746,3.956-8.612
				c0.895-1.931,1.842-3.839,2.696-5.788c0.169-0.386,0.358-0.757,0.56-1.119l3.935-8.08l2.906-5.364
				c0.094-0.28,0.231-0.54,0.414-0.764l0.521-0.962c0.24-0.489,0.511-0.967,0.792-1.442c1.214-2.053,2.406-4.118,3.607-6.179
				c1.443-2.477,2.886-4.954,4.327-7.432c0.178-0.305,0.341-0.619,0.517-0.926c1.585-2.767,3.168-5.535,4.759-8.299
				c1.012-1.757,2.02-3.517,3.061-5.257c0.993-1.659,1.971-3.332,3.059-4.929c1.196-1.755,2.475-3.458,3.798-5.119
				c0.046-0.058,0.101-0.108,0.16-0.156c0.055-0.126,0.109-0.253,0.166-0.379c0.013-0.03,0.024-0.053,0.033-0.073
				c0.059-0.155,0.115-0.311,0.164-0.469c0.031-0.104,0.064-0.218,0.093-0.312c-0.001-0.005-0.002-0.009-0.003-0.015
				c-0.021-0.093-0.045-0.184-0.072-0.275c-0.011-0.02-0.024-0.045-0.039-0.073c-0.011-0.011-0.023-0.023-0.037-0.039
				c-0.037-0.02-0.067-0.037-0.09-0.05c-0.044-0.013-0.089-0.027-0.134-0.039c-0.031-0.013-0.055-0.023-0.076-0.033
				c-0.003,0-0.004,0-0.007,0c-0.213,0-0.421-0.001-0.631,0.006c-0.864,0.8-1.723,1.644-2.343,2.618
				c-3.827,6.02-7.606,12.07-11.312,18.165c-1.742,2.865-3.284,5.851-4.91,8.786c-3.159,5.704-6.314,11.41-9.467,17.118
				c-0.405,0.733-0.813,1.466-1.178,2.219c-0.646,1.331-1.23,2.693-1.895,4.015c-1.146,2.276-2.385,4.506-3.49,6.801
				c-1.049,2.179-1.955,4.427-2.96,6.628c-1.219,2.669-2.489,5.315-3.711,7.982c-0.325,0.71-0.8,1.153-1.583,1.252
				c-0.897,0.114-1.79,0.296-2.691,0.347c-3.487,0.198-6.918,0.063-10.045-1.8c-1.256-0.748-1.274-0.884-1.199-2.319
				c0.091-1.735,0.127-3.488-0.018-5.216c-0.113-1.349-1.39-1.855-2.514-1.161c-1.186,0.732-2.143,3.169-1.649,4.46
				c0.388,1.017,0.894,1.996,1.423,2.95c0.456,0.822,0.576,1.642,0.253,2.511c-1.049,2.824-2.263,5.561-4.239,7.887
				c-1.512,1.781-3.134,3.44-5.184,4.617c-1.837,1.055-3.53,0.702-4.557-1.123c-0.489-0.869-0.765-1.909-0.917-2.906
				c-0.286-1.873-0.071-3.73,0.532-5.544c0.351-1.057-0.29-1.883-1.273-1.593c-0.405,0.12-0.798,0.695-0.964,1.148
				c-1.17,3.203-3.141,5.68-6.256,7.172c-0.988,0.473-1.812,0.017-1.92-1.078c-0.028-0.283,0.036-0.576,0.064-0.864
				c0.168-1.725,0.91-3.256,1.487-4.864c0.95-2.647,2.459-4.954,3.786-7.377c0.217-0.396,0.518-0.751,0.69-1.163
				c0.27-0.648,0.105-1.245-0.528-1.578c-0.709-0.372-0.983,0.197-1.221,0.706c-1.984,4.237-3.974,8.471-5.932,12.719
				c-0.583,1.265-0.53,2.583-0.033,3.871c0.521,1.349,1.742,2.071,3.168,1.789c0.713-0.141,1.491-0.353,2.052-0.78
				c1.092-0.83,2.039-1.848,3.074-2.757c0.267-0.234,0.635-0.353,0.957-0.524c0.143,0.308,0.443,0.639,0.403,0.922
				c-0.249,1.791,0.755,3.087,1.665,4.415c1.138,1.662,3.588,2.384,5.396,1.527c2.418-1.147,4.56-2.676,6.183-4.852
				c0.366-0.491,0.783-0.945,1.141-1.442c1.623-2.254,3.083-4.595,3.868-7.295c0.216-0.741,0.643-0.873,1.43-0.546
				c1.128,0.469,2.25,0.983,3.42,1.314c2.757,0.78,5.569,1.15,8.428,0.633c1.178-0.213,1.532,0.098,1.139,1.254
				c-0.727,2.137-1.495,4.263-2.322,6.364c-0.932,2.367-1.953,4.7-2.922,7.053c-0.109,0.264-0.24,0.598-0.167,0.84
				c0.143,0.475,0.311,1.097,0.674,1.315c0.541,0.324,1.146,0.113,1.609-0.457c0.669-0.823,1.395-1.604,2.146-2.354
				c0.937-0.935,1.918-1.826,2.89-2.725c3.884-3.591,7.771-7.18,11.66-10.766c3.702-3.414,7.832-6.21,12.297-8.528
				c0.976-0.507,1.703-0.278,1.859,0.804c0.122,0.844,0.033,1.732-0.063,2.589c-0.27,2.406-0.725,4.799-0.832,7.21
				c-0.048,1.085,0.349,2.327,0.923,3.268c0.722,1.184,2.053,1.895,3.461,1.736c1.356-0.154,2.747-0.545,3.977-1.135
				c2.229-1.069,4.343-2.374,6.52-3.554c0.334-0.181,0.745-0.22,1.12-0.325c0.075,0.392,0.166,0.782,0.216,1.178
				c0.019,0.152-0.055,0.316-0.085,0.475c-0.385,2.065,0.698,3.689,2.774,3.984c0.877,0.125,1.825,0.149,2.679-0.049
				c1.206-0.279,2.357-0.798,3.528-1.227c3.281-1.202,6.417-2.684,9.262-4.745c0.266-0.193,0.685-0.176,1.033-0.256
				c-0.054,0.361-0.033,0.755-0.177,1.076c-0.541,1.207-1.19,2.367-1.7,3.586c-1.468,3.509-2.915,7.027-4.318,10.562
				c-1.771,4.464-3.513,8.939-5.219,13.428c-0.699,1.841-11.329,31.797-11.936,33.671c-0.461,1.424-0.955,2.844-1.298,4.297
				c0.115,0.041,0.23,0.082,0.346,0.123c0.6-0.377,1.186-0.775,1.766-1.183c0.164-0.573,0.335-1.144,0.517-1.713
				c1.121-3.503,12.38-35.048,13.605-38.517c0.666-1.885,1.413-3.743,2.165-5.597c0.908-2.24,1.843-4.469,2.796-6.69
				c1.45-3.378,2.924-6.745,4.39-10.115c0.051-0.118,0.135-0.221,0.19-0.338c1.062-2.243,2.13-4.483,3.18-6.731
				c1.131-2.423,2.217-4.867,3.376-7.276c1.119-2.325,2.308-4.617,3.465-6.923c1.055-2.105,2.097-4.216,3.167-6.314
				c1.378-2.703,2.789-5.389,4.164-8.092c1.39-2.733,2.727-5.494,4.142-8.214c0.741-1.426,1.733-2.526,3.605-1.909
				c0.206,0.068,0.449,0.026,0.675,0.026c6.042-0.012,12.083-0.06,18.125-0.025c4.252,0.025,8.512-0.162,12.749,0.464
				c2.261,0.334,4.548,0.496,6.822,0.745c1.157,0.127,2.299,0.26,3.258,1.069c0.28,0.236,0.791,0.287,1.186,0.264
				c0.26-0.015,0.643-0.271,0.716-0.5C251.429,94.619,251.246,94.209,251.042,94.033z"/>
			<path fill="#231F20" d="M157.354,202.906l-0.93-0.336l0.092-0.389c0.287-1.216,0.683-2.42,1.064-3.585l0.244-0.747
				c0.554-1.709,11.158-31.623,11.943-33.692c1.645-4.325,3.401-8.846,5.221-13.435c1.249-3.146,2.621-6.505,4.321-10.57
				c0.292-0.697,0.631-1.38,0.959-2.041c0.255-0.515,0.511-1.031,0.747-1.556c0.044-0.097,0.066-0.221,0.081-0.356
				c-0.111,0.02-0.207,0.045-0.263,0.085c-2.611,1.892-5.59,3.418-9.371,4.803c-0.317,0.116-0.632,0.239-0.947,0.362
				c-0.849,0.33-1.726,0.671-2.634,0.881c-0.817,0.19-1.773,0.209-2.843,0.056c-1.113-0.158-2.005-0.664-2.579-1.464
				c-0.585-0.814-0.789-1.897-0.574-3.048c0.012-0.064,0.029-0.128,0.046-0.192c0.014-0.049,0.034-0.123,0.034-0.148
				c-0.029-0.227-0.074-0.456-0.12-0.685c-0.208,0.046-0.402,0.094-0.555,0.177c-0.754,0.409-1.5,0.832-2.247,1.256
				c-1.389,0.788-2.825,1.603-4.293,2.307c-1.266,0.608-2.692,1.015-4.122,1.177c-1.543,0.17-3.068-0.591-3.896-1.949
				c-0.667-1.095-1.037-2.412-0.988-3.522c0.07-1.59,0.292-3.188,0.508-4.733c0.117-0.835,0.232-1.67,0.326-2.506
				c0.1-0.899,0.176-1.706,0.065-2.475c-0.033-0.231-0.114-0.528-0.313-0.63c-0.186-0.096-0.512-0.037-0.893,0.161
				c-4.59,2.382-8.694,5.229-12.199,8.459c-3.888,3.586-7.775,7.175-11.66,10.766l-0.446,0.412
				c-0.808,0.745-1.644,1.515-2.431,2.301c-0.82,0.819-1.512,1.578-2.115,2.319c-0.631,0.776-1.471,0.991-2.19,0.559
				c-0.491-0.295-0.689-0.956-0.848-1.486l-0.025-0.084c-0.122-0.403,0.061-0.847,0.181-1.141c0.358-0.87,0.723-1.737,1.088-2.603
				c0.612-1.453,1.245-2.955,1.832-4.444c0.774-1.968,1.531-4.043,2.314-6.344c0.184-0.541,0.119-0.683,0.116-0.688l0,0
				c-0.003,0-0.143-0.087-0.749,0.023c-2.613,0.47-5.437,0.261-8.631-0.643c-0.973-0.275-1.913-0.674-2.822-1.059l-0.648-0.272
				c-0.413-0.172-0.568-0.137-0.615-0.115c-0.076,0.036-0.151,0.168-0.21,0.371c-0.847,2.909-2.465,5.389-3.935,7.432
				c-0.198,0.274-0.412,0.536-0.628,0.798c-0.176,0.214-0.352,0.428-0.517,0.65c-1.535,2.058-3.613,3.69-6.352,4.99
				c-2.003,0.949-4.676,0.197-5.961-1.679l-0.186-0.271c-0.889-1.287-1.809-2.618-1.554-4.461c-0.004-0.043-0.079-0.171-0.14-0.272
				c-0.185,0.085-0.355,0.169-0.476,0.275c-0.38,0.334-0.748,0.683-1.116,1.031c-0.628,0.595-1.277,1.21-1.982,1.747
				c-0.663,0.504-1.545,0.726-2.238,0.863c-1.632,0.317-3.066-0.492-3.675-2.069c-0.576-1.49-0.56-2.91,0.044-4.221
				c1.624-3.521,3.268-7.031,4.913-10.541l1.022-2.181c0.171-0.367,0.406-0.869,0.894-1.034c0.288-0.098,0.607-0.057,0.943,0.119
				c0.826,0.434,1.107,1.258,0.734,2.15c-0.12,0.287-0.284,0.536-0.444,0.778c-0.093,0.141-0.186,0.282-0.267,0.429
				c-0.331,0.605-0.674,1.203-1.016,1.802c-1.003,1.75-2.041,3.56-2.741,5.511c-0.134,0.375-0.278,0.746-0.421,1.116
				c-0.472,1.221-0.917,2.374-1.041,3.639c-0.008,0.086-0.019,0.173-0.031,0.261c-0.024,0.187-0.048,0.364-0.033,0.517
				c0.037,0.376,0.18,0.653,0.401,0.777c0.224,0.126,0.534,0.104,0.878-0.061c2.854-1.368,4.826-3.631,6.028-6.921
				c0.207-0.569,0.69-1.258,1.259-1.426c0.592-0.174,1.148-0.051,1.527,0.34c0.423,0.437,0.535,1.12,0.301,1.826
				c-0.605,1.817-0.777,3.612-0.515,5.334c0.168,1.106,0.459,2.032,0.865,2.753c0.425,0.755,0.967,1.228,1.611,1.405
				c0.682,0.189,1.49,0.031,2.33-0.451c2.11-1.212,3.745-2.964,5.065-4.518c1.999-2.353,3.181-5.117,4.16-7.753
				c0.263-0.707,0.192-1.386-0.224-2.136c-0.479-0.865-1.027-1.898-1.449-3.007c-0.56-1.464,0.417-4.13,1.833-5.004
				c0.7-0.432,1.501-0.497,2.143-0.173c0.607,0.306,0.993,0.918,1.056,1.679c0.16,1.925,0.094,3.831,0.019,5.277
				c-0.067,1.285-0.067,1.285,0.98,1.909c3.088,1.84,6.53,1.925,9.789,1.738c0.568-0.032,1.127-0.118,1.719-0.209
				c0.313-0.048,0.627-0.096,0.94-0.136c0.578-0.073,0.946-0.37,1.231-0.992c0.595-1.3,1.202-2.594,1.807-3.888
				c0.639-1.363,1.278-2.726,1.903-4.095c0.411-0.9,0.806-1.807,1.2-2.714c0.561-1.292,1.142-2.628,1.764-3.922
				c0.656-1.363,1.368-2.722,2.058-4.036c0.483-0.922,0.967-1.843,1.435-2.772c0.376-0.745,0.725-1.505,1.074-2.263
				c0.269-0.584,0.538-1.168,0.819-1.745c0.351-0.724,0.744-1.435,1.125-2.123l0.065-0.117c3.153-5.708,6.308-11.414,9.467-17.118
				c0.476-0.86,0.946-1.725,1.415-2.59c1.115-2.054,2.268-4.178,3.504-6.211c3.475-5.715,7.176-11.66,11.317-18.173
				c0.67-1.055,1.599-1.95,2.416-2.707l0.124-0.114l0.168-0.006c0.174-0.006,0.347-0.006,0.523-0.006l0.224,0l0.573,0.306
				l0.138,0.247c0.031,0.101,0.057,0.202,0.081,0.305l0.026,0.116l-0.123,0.439c-0.054,0.174-0.113,0.338-0.176,0.502l-0.039,0.089
				c-0.061,0.133-0.113,0.256-0.166,0.38l-0.045,0.103l-0.087,0.07c-0.041,0.033-0.071,0.061-0.091,0.086
				c-1.441,1.811-2.676,3.477-3.777,5.091c-0.939,1.379-1.814,2.845-2.659,4.263l-0.385,0.644c-0.938,1.567-1.849,3.151-2.76,4.734
				l-0.297,0.517c-1.179,2.047-2.353,4.097-3.527,6.148l-1.232,2.15c-0.079,0.139-0.156,0.279-0.233,0.419
				c-0.093,0.17-0.187,0.341-0.285,0.509l-5.353,9.196c-0.857,1.475-1.713,2.95-2.582,4.418c-0.227,0.384-0.52,0.891-0.776,1.411
				l-0.577,1.049c-0.143,0.175-0.257,0.385-0.336,0.622l-2.936,5.435l-3.926,8.063c-0.221,0.396-0.398,0.749-0.553,1.103
				c-0.55,1.255-1.147,2.511-1.724,3.726c-0.327,0.689-0.655,1.378-0.976,2.069l-1.043,2.238c-0.973,2.079-1.977,4.229-2.908,6.365
				c-0.562,1.29-1.083,2.628-1.586,3.922c-0.395,1.017-0.79,2.034-1.21,3.04c-0.576,1.384-1.167,2.761-1.759,4.138
				c-0.653,1.52-1.306,3.04-1.938,4.569c-0.045,0.109-0.025,0.304,0.003,0.507c0.219-0.049,0.451-0.106,0.542-0.198
				c4.246-4.252,9.239-9.139,14.774-13.329c3.401-2.575,7.008-4.906,10.494-7.161c0.903-0.583,2.15-0.665,3.009-0.676
				c0.645-0.021,1.56,0.558,1.848,1.165c0.272,0.575,0.713,1.706,0.624,2.831c-0.117,1.476-0.302,2.966-0.482,4.407
				c-0.154,1.238-0.313,2.518-0.427,3.777c-0.087,0.958,0.09,1.962,0.254,2.73c0.115,0.544,0.552,0.889,1.1,0.847
				c1.108-0.076,2.177-0.149,3.091-0.495c1.661-0.631,3.283-1.4,4.82-2.286c0.29-0.167,0.582-0.332,0.875-0.497
				c2.747-1.55,5.342-3.015,6.278-6.238c0.04-0.137,0.117-0.243,0.162-0.306c0.303-0.417,0.777-0.635,1.224-0.579
				c0.423,0.055,0.776,0.346,0.943,0.779c0.183,0.468,0.19,1.098,0.018,1.603c-0.181,0.528-0.416,1.033-0.643,1.522
				c-0.152,0.328-0.304,0.656-0.441,0.99c-0.198,0.486-0.436,0.953-0.667,1.405c-0.506,0.991-0.985,1.927-1.045,3.029
				c-0.045,0.817,0.036,1.273,0.267,1.525c0.275,0.299,0.883,0.45,1.967,0.487c0.222-0.057,0.482-0.11,0.767-0.168
				c0.75-0.153,1.683-0.343,2.487-0.736c2.837-1.39,5.677-2.901,8.425-4.362l2.381-1.264c1.824-0.963,2.869-2.007,3.388-3.385
				c0.06-0.16,0.116-0.322,0.172-0.484c0.125-0.362,0.253-0.735,0.432-1.094c1.177-2.367,2.359-4.732,3.541-7.097
				c1.096-2.194,2.194-4.388,3.285-6.584c1.394-2.803,2.784-5.607,4.173-8.412c1.39-2.805,2.78-5.61,4.173-8.413
				c0.282-0.566,0.576-1.125,0.87-1.684c0.334-0.635,0.668-1.269,0.982-1.914c0.216-0.443,0.236-0.668,0.227-0.718
				c-0.048-0.062-0.382-0.211-0.651-0.211c-0.001,0-0.002,0-0.003,0c-1.922,0.009-3.88,0.075-5.774,0.139l-0.306,0.01
				c-1.407,0.047-2.814,0.1-4.221,0.153c-1.46,0.055-2.919,0.11-4.379,0.159c-1.356,0.045-2.711,0.084-4.066,0.122
				c-1.288,0.037-2.577,0.073-3.866,0.116c-1.99,0.066-3.981,0.135-5.972,0.204c-2.687,0.093-5.374,0.186-8.06,0.271
				c-1.466,0.046-2.934,0.083-4.4,0.12c-1.986,0.05-3.973,0.1-5.959,0.173c-0.875,0.032-1.749,0.098-2.623,0.163l-1.233,0.089
				l-0.084-0.028c-0.17-0.053-0.363-0.093-0.571-0.118l-0.28-0.034l-0.182-0.513c-0.051-0.157-0.088-0.298-0.122-0.44l-0.02-0.319
				l0.116-0.387l0.078-0.077c0.012-0.016,0.044-0.065,0.079-0.121l-2.464,0.224l3.547-1.213c0.196-0.067,0.393-0.128,0.594-0.179
				l0.23-0.06l0.308,0.273c0.121,0.115,0.482,0.235,1.124,0.217c2.676-0.059,5.044-0.146,7.237-0.266
				c1.045-0.057,2.088-0.14,3.132-0.223c1.345-0.106,2.735-0.217,4.11-0.268c3.387-0.126,6.832-0.193,10.163-0.259l1.952-0.038
				c5.924-0.12,11.849-0.231,17.774-0.341l3.248-0.061c0.11-0.002,0.223-0.009,0.335-0.015c0.377-0.02,0.764-0.043,1.147,0.067
				c0.968,0.279,1.626-0.033,2.197-1.047l0.453-0.805c1.271-2.257,2.542-4.514,3.782-6.788c0.565-1.036,1.113-2.081,1.661-3.126
				c0.802-1.528,1.63-3.108,2.501-4.634c2.003-3.507,4.076-7.132,6.35-10.666c0.981-1.525,2.158-2.945,3.297-4.318
				c0.418-0.504,0.836-1.009,1.245-1.519c0.072-0.09,0.151-0.174,0.231-0.258l0.155-0.16l1.321,0.151l0.453,1.09l-1.522,2.202
				c-0.581,0.749-1.019,1.358-1.393,1.933c-2.258,3.48-4.604,7.157-6.973,10.927c-0.72,1.145-1.446,2.429-2.22,3.926l-1.517,2.83
				l-4.821,9.44l0.057,0.264l0.595,0.11l0.186,0.083c0.244,0.11,0.474,0.214,0.67,0.223c1.43,0.067,2.891,0.08,4.303,0.092
				l0.424,0.004c1.007,0.01,2.016,0.007,3.027,0.005l0.896-0.001l0.006-0.162l0.449,0.013c2.222,0.066,4.444,0.123,6.667,0.181
				c5.561,0.143,11.311,0.291,16.962,0.586c2.057,0.107,4.11,0.581,6.095,1.039c0.772,0.178,1.543,0.356,2.314,0.513
				c0.436,0.089,0.9,0.344,1.377,0.757l0,0c0.283,0.245,0.597,0.826,0.452,1.284c-0.139,0.436-0.705,0.789-1.119,0.813
				c-0.302,0.015-1.044,0.017-1.502-0.369c-0.866-0.73-1.911-0.845-3.017-0.966c-0.761-0.083-1.525-0.157-2.288-0.23
				c-1.494-0.144-3.038-0.293-4.552-0.517c-3.328-0.492-6.746-0.477-10.042-0.462c-0.882,0.005-1.764,0.008-2.644,0.003
				c-4.2-0.024-8.472-0.008-12.605,0.007c-1.839,0.007-3.678,0.014-5.517,0.018l-0.166,0.006c-0.198,0.011-0.423,0.022-0.651-0.054
				c-1.341-0.441-2.202,0.031-3.065,1.689c-0.838,1.611-1.649,3.237-2.459,4.862c-0.557,1.118-1.114,2.236-1.681,3.349
				c-0.712,1.4-1.433,2.794-2.155,4.189c-0.672,1.3-1.344,2.6-2.009,3.903c-0.724,1.419-1.435,2.845-2.146,4.27l-1.019,2.041
				c-0.36,0.719-0.724,1.436-1.088,2.153c-0.802,1.583-1.605,3.165-2.374,4.764c-0.715,1.484-1.401,2.982-2.087,4.48
				c-0.427,0.931-0.853,1.863-1.287,2.791c-0.799,1.711-1.609,3.417-2.418,5.123l-0.764,1.611c-0.032,0.069-0.073,0.136-0.113,0.202
				c-0.025,0.04-0.051,0.079-0.07,0.122l-1.079,2.477c-1.109,2.544-2.217,5.087-3.311,7.637c-1.024,2.386-1.937,4.571-2.793,6.681
				c-0.796,1.964-1.509,3.739-2.157,5.577c-0.259,0.735-0.969,2.73-1.938,5.451c-3.5,9.834-10.782,30.299-11.663,33.053
				c-0.181,0.564-0.35,1.131-0.513,1.7l-0.044,0.152l-0.13,0.092c-0.655,0.462-1.239,0.853-1.785,1.197L157.354,202.906z
				 M182.145,135.078l-0.098,0.654c-0.016,0.103-0.024,0.21-0.033,0.316c-0.023,0.275-0.049,0.586-0.178,0.876
				c-0.24,0.536-0.5,1.062-0.762,1.588c-0.321,0.648-0.653,1.318-0.934,1.988c-1.698,4.06-3.069,7.413-4.314,10.554
				c-1.82,4.585-3.574,9.101-5.216,13.423c-0.785,2.067-11.375,31.943-11.929,33.649l-0.245,0.75
				c-0.303,0.925-0.615,1.875-0.87,2.827c0.348-0.228,0.717-0.479,1.111-0.755c0.152-0.526,0.31-1.051,0.478-1.573
				c0.885-2.768,8.17-23.242,11.672-33.081c0.968-2.72,1.678-4.714,1.937-5.448c0.655-1.856,1.371-3.641,2.172-5.616
				c0.858-2.116,1.773-4.307,2.799-6.697c1.095-2.552,2.204-5.097,3.314-7.642l1.078-2.475c0.036-0.082,0.082-0.16,0.13-0.237
				c0.023-0.037,0.047-0.074,0.066-0.114l0.764-1.612c0.809-1.704,1.618-3.409,2.416-5.117c0.433-0.926,0.858-1.856,1.284-2.785
				c0.688-1.503,1.377-3.007,2.094-4.496c0.773-1.604,1.577-3.192,2.382-4.781c0.363-0.716,0.726-1.432,1.086-2.149l1.019-2.039
				c0.713-1.428,1.425-2.856,2.15-4.278c0.665-1.305,1.339-2.607,2.011-3.908c0.721-1.393,1.441-2.786,2.152-4.184
				c0.565-1.111,1.122-2.226,1.678-3.342c0.812-1.63,1.625-3.26,2.466-4.876c0.666-1.281,1.821-2.894,4.145-2.129
				c0.07,0.024,0.199,0.017,0.325,0.011c0.07-0.004,0.14-0.007,0.209-0.007c1.838-0.003,3.677-0.011,5.515-0.017
				c4.134-0.015,8.409-0.032,12.613-0.007c0.879,0.006,1.756,0.002,2.635-0.002c3.334-0.014,6.783-0.03,10.177,0.472
				c1.491,0.221,3.024,0.368,4.506,0.511c0.768,0.074,1.534,0.148,2.3,0.232c1.136,0.124,2.424,0.266,3.499,1.173
				c0.139,0.118,0.491,0.185,0.87,0.159c0.085-0.006,0.279-0.128,0.32-0.202c-0.009-0.036-0.103-0.241-0.188-0.315l0,0
				c-0.355-0.306-0.69-0.499-0.969-0.556c-0.779-0.159-1.558-0.338-2.337-0.518c-1.947-0.449-3.961-0.914-5.94-1.017
				c-5.639-0.295-11.383-0.443-16.938-0.585c-2.075-0.053-4.152-0.106-6.227-0.168l-0.007,0.136l-1.757,0.002
				c-1.011,0.003-2.024,0.004-3.037-0.004l-0.424-0.004c-1.42-0.013-2.89-0.026-4.337-0.094c-0.368-0.017-0.702-0.168-0.998-0.301
				l-0.124-0.055l-1.039-0.168l-0.253-1.179l4.972-9.734l1.494-2.769c0.806-1.575,1.544-2.88,2.277-4.047
				c2.371-3.774,4.72-7.454,6.981-10.938c0.387-0.598,0.84-1.226,1.422-1.975l1.227-1.777l-0.062-0.148l-0.347-0.039
				c-0.01,0.012-0.02,0.024-0.03,0.037c-0.411,0.513-0.832,1.021-1.254,1.529c-1.122,1.352-2.28,2.75-3.233,4.231
				c-2.262,3.513-4.327,7.128-6.324,10.624c-0.864,1.512-1.688,3.085-2.486,4.605c-0.551,1.049-1.101,2.099-1.668,3.139
				c-1.242,2.277-2.516,4.538-3.789,6.799l-0.453,0.805c-0.772,1.371-1.859,1.868-3.23,1.471c-0.238-0.069-0.534-0.051-0.846-0.033
				c-0.125,0.007-0.249,0.014-0.371,0.016l-3.248,0.061c-5.924,0.111-11.848,0.221-17.773,0.341l-1.952,0.039
				c-3.326,0.065-6.767,0.133-10.146,0.258c-1.356,0.05-2.737,0.16-4.072,0.266c-1.051,0.083-2.102,0.167-3.155,0.224
				c-2.203,0.12-4.579,0.207-7.266,0.266c-0.768,0.021-1.33-0.116-1.683-0.396c-0.076,0.023-0.151,0.047-0.227,0.072
				c-0.087,0.06-0.195,0.119-0.318,0.185c-0.045,0.043-0.104,0.093-0.182,0.159l-0.031,0.026c-0.075,0.151-0.19,0.331-0.277,0.448
				l-0.006,0.019c0.001,0.026,0.002,0.049,0.002,0.069c0.024,0.099,0.051,0.198,0.082,0.295c0.132,0.024,0.259,0.053,0.379,0.087
				L151.825,94c0.885-0.066,1.771-0.132,2.656-0.165c1.99-0.073,3.98-0.123,5.97-0.173c1.465-0.037,2.93-0.074,4.394-0.12
				c2.687-0.085,5.373-0.178,8.059-0.271c1.991-0.069,3.982-0.138,5.974-0.204c1.289-0.043,2.579-0.079,3.869-0.116
				c1.354-0.038,2.708-0.077,4.061-0.122c1.459-0.049,2.918-0.104,4.376-0.159c1.408-0.053,2.816-0.106,4.225-0.154l0.307-0.01
				c1.9-0.064,3.863-0.13,5.799-0.14c0.002,0,0.004,0,0.006,0c0.441,0,1.176,0.215,1.448,0.696c0.193,0.342,0.123,0.841-0.213,1.528
				c-0.318,0.653-0.656,1.296-0.994,1.938c-0.291,0.553-0.582,1.107-0.86,1.666c-1.394,2.803-2.784,5.607-4.173,8.412
				c-1.39,2.805-2.78,5.61-4.173,8.413c-1.092,2.197-2.19,4.391-3.287,6.586c-1.182,2.364-2.364,4.728-3.539,7.095
				c-0.153,0.307-0.267,0.637-0.388,0.987c-0.058,0.17-0.117,0.34-0.181,0.507c-0.772,2.049-2.441,3.141-3.809,3.863l-2.379,1.263
				c-2.754,1.464-5.601,2.979-8.452,4.375c-0.906,0.444-1.902,0.647-2.702,0.81c-0.293,0.06-0.559,0.113-0.779,0.172l-0.064,0.017
				l-0.066-0.002c-1.424-0.042-2.197-0.268-2.667-0.78c-0.516-0.561-0.547-1.381-0.504-2.183c0.07-1.293,0.615-2.359,1.143-3.39
				c0.232-0.454,0.452-0.884,0.634-1.333c0.142-0.348,0.3-0.689,0.458-1.03c0.227-0.489,0.442-0.952,0.607-1.435
				c0.103-0.3,0.101-0.715-0.005-0.984c-0.034-0.089-0.1-0.197-0.219-0.213c-0.1-0.013-0.251,0.036-0.379,0.214
				c-1.066,3.606-3.944,5.23-6.727,6.801c-0.291,0.164-0.581,0.328-0.869,0.493c-1.578,0.91-3.244,1.699-4.95,2.347
				c-1.038,0.394-2.175,0.472-3.275,0.547c-1.076,0.066-1.906-0.567-2.116-1.552c-0.177-0.83-0.368-1.92-0.27-2.998
				c0.116-1.274,0.276-2.562,0.431-3.807c0.178-1.431,0.362-2.911,0.478-4.367c0.054-0.679-0.138-1.522-0.541-2.374
				c-0.136-0.287-0.704-0.65-1.018-0.65c-0.002,0-0.003,0-0.005,0c-1.173,0.015-2.001,0.189-2.531,0.532
				c-3.474,2.245-7.066,4.567-10.44,7.122c-5.49,4.156-10.456,9.017-14.68,13.248c-0.284,0.285-0.687,0.375-1.043,0.454
				c-0.131,0.029-0.262,0.057-0.381,0.097l-0.567,0.189l-0.025-0.597c-0.005-0.117-0.023-0.24-0.041-0.363
				c-0.048-0.336-0.102-0.716,0.043-1.068c0.633-1.533,1.288-3.057,1.943-4.581c0.59-1.374,1.18-2.748,1.755-4.129
				c0.416-1,0.809-2.011,1.202-3.021c0.507-1.302,1.031-2.649,1.599-3.955c0.936-2.147,1.943-4.302,2.918-6.386l1.042-2.235
				c0.321-0.694,0.65-1.386,0.979-2.077c0.574-1.209,1.168-2.458,1.713-3.701c0.167-0.381,0.357-0.76,0.58-1.158l3.922-8.057
				l2.914-5.381c0.08-0.258,0.235-0.548,0.434-0.8l0.501-0.926c0.262-0.533,0.566-1.06,0.802-1.457
				c0.866-1.466,1.722-2.939,2.578-4.412l5.354-9.196c0.094-0.162,0.184-0.326,0.273-0.489c0.08-0.145,0.16-0.291,0.242-0.434
				l1.231-2.15c1.175-2.051,2.349-4.101,3.528-6.15l0.297-0.516c0.913-1.588,1.827-3.175,2.768-4.747l0.384-0.643
				c0.853-1.429,1.734-2.907,2.689-4.308c1.113-1.633,2.361-3.316,3.817-5.146c0.041-0.051,0.087-0.1,0.14-0.149
				c0.042-0.097,0.085-0.195,0.129-0.292c0.078-0.193,0.13-0.341,0.177-0.489l0.057-0.192c-0.003-0.012-0.006-0.024-0.01-0.036
				l-0.106-0.022c-0.11,0-0.219,0-0.327,0.002c-0.745,0.693-1.564,1.501-2.144,2.413c-4.137,6.508-7.836,12.448-11.307,18.158
				c-1.224,2.015-2.372,4.129-3.482,6.173c-0.47,0.867-0.941,1.734-1.419,2.596c-3.159,5.704-6.314,11.41-9.466,17.118l-0.065,0.117
				c-0.375,0.678-0.762,1.379-1.103,2.08c-0.278,0.572-0.544,1.151-0.811,1.729c-0.354,0.768-0.708,1.537-1.088,2.292
				c-0.47,0.934-0.956,1.86-1.441,2.786c-0.686,1.307-1.395,2.659-2.044,4.008c-0.615,1.278-1.193,2.606-1.751,3.89
				c-0.396,0.913-0.793,1.825-1.206,2.73c-0.627,1.372-1.267,2.737-1.907,4.103c-0.606,1.292-1.211,2.583-1.805,3.88
				c-0.413,0.904-1.046,1.398-1.935,1.511c-0.306,0.038-0.612,0.085-0.917,0.132c-0.586,0.09-1.194,0.183-1.804,0.218
				c-3.405,0.192-7.005,0.1-10.301-1.863c-1.411-0.841-1.5-1.155-1.418-2.729c0.074-1.417,0.139-3.284-0.017-5.155
				c-0.037-0.448-0.238-0.785-0.564-0.95c-0.36-0.182-0.834-0.131-1.264,0.135c-1.031,0.636-1.866,2.869-1.466,3.917
				c0.403,1.056,0.932,2.055,1.396,2.892c0.546,0.984,0.637,1.928,0.281,2.886c-1.007,2.713-2.228,5.563-4.317,8.022
				c-1.371,1.613-3.073,3.435-5.303,4.716c-1.054,0.605-2.098,0.792-3.017,0.539c-0.871-0.24-1.617-0.873-2.156-1.832
				c-0.46-0.816-0.786-1.845-0.971-3.059c-0.284-1.864-0.099-3.8,0.551-5.754c0.125-0.376,0.088-0.728-0.094-0.917
				c-0.139-0.145-0.36-0.18-0.626-0.102c-0.185,0.055-0.51,0.439-0.668,0.871c-1.287,3.521-3.407,5.95-6.485,7.424
				c-0.615,0.295-1.221,0.307-1.708,0.034c-0.484-0.272-0.788-0.796-0.855-1.473c-0.025-0.255,0.007-0.503,0.036-0.721l0.028-0.23
				c0.135-1.388,0.624-2.654,1.097-3.878c0.141-0.363,0.282-0.727,0.414-1.095c0.727-2.026,1.785-3.87,2.807-5.654
				c0.34-0.593,0.68-1.187,1.008-1.787c0.093-0.169,0.199-0.33,0.305-0.492c0.143-0.216,0.278-0.419,0.364-0.628
				c0.19-0.456,0.082-0.795-0.322-1.007c-0.102-0.054-0.19-0.078-0.237-0.064c-0.123,0.042-0.275,0.367-0.366,0.562l-1.022,2.181
				c-1.645,3.509-3.288,7.017-4.91,10.536c-0.499,1.082-0.506,2.266-0.023,3.52c0.451,1.166,1.47,1.746,2.662,1.509
				c0.552-0.109,1.346-0.3,1.868-0.696c0.666-0.507,1.297-1.105,1.908-1.683c0.377-0.356,0.752-0.713,1.141-1.054
				c0.232-0.204,0.509-0.331,0.753-0.444c0.098-0.045,0.195-0.089,0.289-0.139l0.419-0.223l0.201,0.431
				c0.038,0.083,0.091,0.166,0.143,0.251c0.163,0.267,0.348,0.57,0.298,0.923c-0.207,1.494,0.575,2.626,1.403,3.824l0.189,0.274
				c1.027,1.5,3.24,2.128,4.832,1.374c2.603-1.235,4.57-2.777,6.015-4.715c0.174-0.233,0.36-0.458,0.544-0.684
				c0.203-0.247,0.407-0.494,0.593-0.752c1.426-1.98,2.993-4.38,3.801-7.157c0.138-0.471,0.362-0.776,0.685-0.931
				c0.467-0.223,0.994-0.052,1.35,0.095l0.653,0.275c0.884,0.374,1.798,0.762,2.716,1.021c3.104,0.879,5.718,1.076,8.226,0.624
				c0.547-0.097,1.219-0.155,1.594,0.279c0.37,0.43,0.222,1.06,0.051,1.562c-0.787,2.315-1.549,4.403-2.329,6.383
				c-0.59,1.499-1.225,3.006-1.839,4.464c-0.364,0.864-0.729,1.729-1.086,2.596c-0.045,0.108-0.179,0.436-0.152,0.538l0.026,0.086
				c0.096,0.321,0.257,0.858,0.449,0.973c0.449,0.268,0.869-0.159,1.029-0.355c0.623-0.766,1.334-1.547,2.177-2.388
				c0.8-0.799,1.642-1.575,2.457-2.326l0.446-0.411c3.884-3.592,7.771-7.181,11.66-10.767c3.564-3.285,7.734-6.177,12.395-8.597
				c0.838-0.433,1.398-0.327,1.719-0.163c0.298,0.153,0.677,0.504,0.792,1.303c0.126,0.873,0.043,1.777-0.062,2.703
				c-0.094,0.844-0.211,1.687-0.329,2.53c-0.212,1.525-0.432,3.102-0.5,4.649c-0.04,0.924,0.288,2.079,0.858,3.014
				c0.645,1.06,1.828,1.662,3.025,1.523c1.331-0.151,2.657-0.528,3.834-1.093c1.44-0.691,2.862-1.498,4.237-2.279
				c0.751-0.426,1.504-0.853,2.262-1.264c0.285-0.155,0.585-0.22,0.876-0.283c0.113-0.025,0.227-0.049,0.338-0.08l0.471-0.132
				l0.159,0.819c0.058,0.288,0.117,0.577,0.153,0.868c0.025,0.192-0.022,0.361-0.059,0.496c-0.011,0.04-0.023,0.079-0.03,0.118
				c-0.171,0.919-0.026,1.735,0.421,2.357c0.428,0.595,1.11,0.975,1.974,1.097c0.959,0.136,1.805,0.123,2.514-0.041
				c0.845-0.195,1.692-0.524,2.51-0.843c0.321-0.125,0.642-0.25,0.964-0.368c3.701-1.356,6.61-2.845,9.153-4.686
				c0.274-0.199,0.603-0.243,0.893-0.281c0.103-0.014,0.206-0.027,0.303-0.049L182.145,135.078z"/>
		</g>
	</g>
</g>
<g>
	<path fill="#231F20" d="M88.336,214.349c0,0.659-0.127,1.247-0.381,1.762c-0.255,0.516-0.608,0.955-1.062,1.319
		c-0.453,0.364-0.997,0.642-1.628,0.835c-0.632,0.192-1.326,0.289-2.082,0.289c-0.453,0-0.924-0.041-1.412-0.124
		c-0.488-0.083-0.976-0.206-1.464-0.371c-0.488-0.165-0.955-0.367-1.401-0.608c-0.447-0.24-0.855-0.526-1.226-0.856l1.154-1.463
		c0.577,0.55,1.244,0.969,1.999,1.258c0.756,0.288,1.566,0.433,2.432,0.433c0.453,0,0.876-0.048,1.268-0.144
		c0.392-0.096,0.728-0.243,1.01-0.443c0.281-0.199,0.505-0.457,0.67-0.773c0.165-0.316,0.247-0.694,0.247-1.134
		c0-0.412-0.09-0.749-0.268-1.01c-0.179-0.261-0.419-0.477-0.721-0.649c-0.303-0.172-0.653-0.312-1.051-0.423
		c-0.399-0.11-0.824-0.206-1.278-0.289c-0.563-0.11-1.12-0.23-1.669-0.361c-0.55-0.13-1.045-0.333-1.484-0.608
		c-0.44-0.275-0.797-0.649-1.072-1.123c-0.275-0.474-0.412-1.103-0.412-1.886c0-0.659,0.129-1.24,0.386-1.742
		c0.257-0.502,0.607-0.924,1.051-1.268c0.444-0.344,0.951-0.601,1.521-0.773c0.57-0.172,1.178-0.258,1.824-0.258
		c0.976,0,1.835,0.11,2.577,0.329c0.742,0.22,1.415,0.57,2.02,1.051l-1.01,1.546c-0.522-0.357-1.082-0.639-1.68-0.845
		c-0.598-0.206-1.233-0.309-1.907-0.309c-0.962,0-1.697,0.199-2.205,0.598c-0.509,0.399-0.763,0.955-0.763,1.67
		c0,0.371,0.086,0.684,0.257,0.938c0.171,0.255,0.428,0.471,0.771,0.649c0.343,0.179,0.764,0.334,1.264,0.464
		c0.5,0.131,1.072,0.258,1.717,0.381c0.452,0.096,0.915,0.213,1.388,0.35c0.473,0.138,0.904,0.348,1.295,0.629
		c0.391,0.282,0.71,0.656,0.956,1.123C88.212,212.981,88.336,213.593,88.336,214.349z"/>
	<path fill="#231F20" d="M112.699,204.084v9.151c0,0.811-0.12,1.546-0.361,2.206c-0.241,0.659-0.584,1.219-1.031,1.68
		c-0.447,0.461-0.983,0.814-1.608,1.061c-0.626,0.247-1.33,0.371-2.113,0.371c-0.852,0-1.597-0.144-2.236-0.433
		c-0.639-0.288-1.172-0.673-1.597-1.154c-0.426-0.481-0.742-1.044-0.948-1.69c-0.206-0.646-0.309-1.326-0.309-2.041v-9.151h1.814
		v9.007c0,0.481,0.068,0.945,0.205,1.391c0.137,0.447,0.342,0.842,0.616,1.185c0.274,0.344,0.616,0.622,1.027,0.835
		c0.411,0.213,0.897,0.319,1.459,0.319c1.014,0,1.811-0.319,2.394-0.958c0.582-0.639,0.873-1.563,0.873-2.772v-9.007H112.699z"/>
	<path fill="#231F20" d="M127.89,218.43v-14.346h1.814v14.346H127.89z"/>
	<path fill="#231F20" d="M149.574,205.671v12.759h-1.814v-12.759h-4.081v-1.587h9.976v1.587H149.574z"/>
	<path fill="#231F20" d="M167.609,218.43v-14.346h9.069v1.67h-7.255v4.638h6.183v1.587h-6.183v4.782h7.255v1.67H167.609z"/>
	<path fill="#231F20" d="M200.299,214.349c0,0.659-0.127,1.247-0.381,1.762c-0.255,0.516-0.608,0.955-1.061,1.319
		c-0.454,0.364-0.997,0.642-1.628,0.835c-0.632,0.192-1.327,0.289-2.082,0.289c-0.453,0-0.924-0.041-1.412-0.124
		c-0.488-0.083-0.975-0.206-1.463-0.371c-0.488-0.165-0.955-0.367-1.401-0.608c-0.447-0.24-0.856-0.526-1.226-0.856l1.154-1.463
		c0.577,0.55,1.243,0.969,1.999,1.258c0.756,0.288,1.566,0.433,2.432,0.433c0.454,0,0.876-0.048,1.268-0.144
		c0.392-0.096,0.728-0.243,1.01-0.443c0.281-0.199,0.505-0.457,0.67-0.773c0.165-0.316,0.247-0.694,0.247-1.134
		c0-0.412-0.09-0.749-0.268-1.01c-0.179-0.261-0.419-0.477-0.721-0.649c-0.302-0.172-0.652-0.312-1.051-0.423
		c-0.399-0.11-0.824-0.206-1.278-0.289c-0.563-0.11-1.12-0.23-1.67-0.361c-0.55-0.13-1.044-0.333-1.484-0.608
		c-0.44-0.275-0.797-0.649-1.072-1.123c-0.275-0.474-0.412-1.103-0.412-1.886c0-0.659,0.128-1.24,0.385-1.742
		c0.257-0.502,0.608-0.924,1.051-1.268c0.444-0.344,0.951-0.601,1.521-0.773c0.57-0.172,1.178-0.258,1.824-0.258
		c0.975,0,1.835,0.11,2.577,0.329c0.742,0.22,1.415,0.57,2.02,1.051l-1.01,1.546c-0.523-0.357-1.083-0.639-1.68-0.845
		c-0.598-0.206-1.233-0.309-1.907-0.309c-0.962,0-1.697,0.199-2.205,0.598c-0.509,0.399-0.763,0.955-0.763,1.67
		c0,0.371,0.086,0.684,0.257,0.938c0.171,0.255,0.428,0.471,0.771,0.649c0.343,0.179,0.764,0.334,1.265,0.464
		c0.5,0.131,1.072,0.258,1.716,0.381c0.452,0.096,0.915,0.213,1.388,0.35c0.473,0.138,0.904,0.348,1.295,0.629
		c0.391,0.282,0.71,0.656,0.956,1.123C200.176,212.981,200.299,213.593,200.299,214.349z"/>
</g>
<g>
	<path fill="#231F20" d="M85.634,237.56c0,0.468-0.09,0.885-0.27,1.251c-0.181,0.366-0.432,0.678-0.753,0.936
		c-0.322,0.259-0.707,0.456-1.155,0.592c-0.449,0.137-0.941,0.205-1.477,0.205c-0.322,0-0.656-0.029-1.002-0.088
		c-0.346-0.058-0.692-0.146-1.039-0.263c-0.346-0.117-0.678-0.261-0.995-0.432c-0.317-0.171-0.607-0.373-0.87-0.607l0.819-1.038
		c0.409,0.39,0.882,0.688,1.419,0.892c0.536,0.205,1.111,0.307,1.726,0.307c0.322,0,0.622-0.034,0.899-0.102
		s0.517-0.173,0.717-0.314c0.2-0.141,0.358-0.324,0.475-0.549c0.117-0.224,0.176-0.492,0.176-0.804c0-0.292-0.064-0.531-0.19-0.716
		c-0.127-0.185-0.298-0.339-0.512-0.461c-0.215-0.122-0.463-0.222-0.746-0.3c-0.283-0.078-0.585-0.146-0.907-0.205
		c-0.4-0.078-0.795-0.163-1.185-0.256c-0.39-0.093-0.741-0.236-1.053-0.432c-0.312-0.195-0.566-0.46-0.761-0.797
		c-0.195-0.337-0.293-0.783-0.293-1.338c0-0.468,0.091-0.88,0.274-1.236c0.182-0.356,0.431-0.655,0.746-0.899
		c0.315-0.243,0.675-0.427,1.079-0.548c0.404-0.122,0.836-0.183,1.294-0.183c0.692,0,1.302,0.078,1.828,0.234
		c0.526,0.156,1.004,0.405,1.433,0.746l-0.717,1.097c-0.371-0.254-0.768-0.454-1.192-0.6c-0.424-0.146-0.875-0.219-1.353-0.219
		c-0.682,0-1.204,0.141-1.565,0.424c-0.361,0.283-0.541,0.678-0.541,1.185c0,0.263,0.061,0.485,0.182,0.665
		c0.122,0.181,0.304,0.335,0.547,0.461c0.243,0.127,0.542,0.236,0.897,0.329c0.355,0.093,0.761,0.183,1.218,0.271
		c0.321,0.068,0.649,0.151,0.985,0.249c0.336,0.098,0.642,0.246,0.919,0.446c0.277,0.2,0.504,0.466,0.679,0.797
		C85.546,236.59,85.634,237.024,85.634,237.56z"/>
	<path fill="#231F20" d="M100.113,240.456l-0.819-2.34h-4.227l-0.819,2.34h-1.345l3.729-10.179h1.112l3.729,10.179H100.113z
		 M97.949,234.159l-0.746-2.171h-0.044l-0.717,2.112l-1.009,2.919h3.496L97.949,234.159z"/>
	<path fill="#231F20" d="M115.891,240.456l-3.723-5.733l-1.349-2.223l-0.044,0.015v7.942h-1.287v-10.179h1.272l3.583,5.543
		l1.477,2.442l0.044-0.029v-7.956h1.287v10.179H115.891z"/>
	<path fill="#231F20" d="M129.232,231.403v9.053h-1.287v-9.053h-2.896v-1.126h7.079v1.126H129.232z"/>
	<path fill="#231F20" d="M143.009,230.203c0.556,0,1.058,0.095,1.506,0.285c0.448,0.19,0.831,0.451,1.148,0.783
		c0.316,0.331,0.558,0.729,0.724,1.192c0.165,0.463,0.249,0.963,0.249,1.499v2.808c0,0.575-0.086,1.097-0.256,1.565
		c-0.171,0.468-0.415,0.866-0.731,1.192c-0.317,0.326-0.697,0.577-1.141,0.753c-0.444,0.176-0.943,0.263-1.499,0.263
		c-0.605,0-1.134-0.102-1.587-0.307c-0.453-0.205-0.832-0.478-1.134-0.819c-0.302-0.341-0.526-0.741-0.673-1.199
		c-0.146-0.458-0.22-0.941-0.22-1.448v-2.808c0-0.497,0.073-0.972,0.22-1.426c0.146-0.454,0.37-0.853,0.673-1.199
		c0.302-0.346,0.68-0.622,1.134-0.826C141.875,230.306,142.404,230.203,143.009,230.203z M143.031,231.417
		c-0.399,0-0.743,0.073-1.035,0.22c-0.292,0.147-0.535,0.34-0.729,0.579c-0.194,0.239-0.34,0.515-0.437,0.828
		c-0.097,0.312-0.146,0.63-0.146,0.952v2.711c0,0.342,0.049,0.672,0.146,0.989c0.097,0.317,0.243,0.598,0.437,0.842
		c0.194,0.244,0.437,0.442,0.729,0.594c0.292,0.151,0.637,0.227,1.035,0.227c0.359,0,0.683-0.068,0.969-0.205
		c0.287-0.137,0.53-0.322,0.729-0.557c0.199-0.234,0.352-0.513,0.46-0.835s0.16-0.674,0.16-1.055v-2.711
		c0-0.352-0.053-0.684-0.16-0.997c-0.107-0.312-0.26-0.586-0.46-0.82c-0.199-0.234-0.442-0.42-0.729-0.557
		C143.714,231.486,143.39,231.417,143.031,231.417z"/>
	<path fill="#231F20" d="M160.822,240.456l-1.945-4.476h-2.296v4.476h-1.287v-10.179h4.154c0.409,0,0.794,0.068,1.155,0.205
		c0.361,0.136,0.673,0.326,0.936,0.57c0.263,0.243,0.47,0.536,0.622,0.877c0.151,0.342,0.226,0.717,0.226,1.126
		c0,0.702-0.202,1.294-0.607,1.777c-0.405,0.483-0.934,0.821-1.587,1.017l2.062,4.607H160.822z M161.1,233.056
		c0-0.575-0.176-0.995-0.527-1.258c-0.351-0.263-0.804-0.395-1.36-0.395h-2.632v3.452h2.574c0.556,0,1.019-0.153,1.389-0.461
		C160.915,234.086,161.1,233.641,161.1,233.056z"/>
	<path fill="#231F20" d="M170.855,240.456v-10.179h1.287v10.179H170.855z"/>
	<path fill="#231F20" d="M187.598,240.456l-3.724-5.733l-1.349-2.223l-0.044,0.015v7.942h-1.287v-10.179h1.272l3.583,5.543
		l1.477,2.442l0.044-0.029v-7.956h1.287v10.179H187.598z"/>
	<path fill="#231F20" d="M197.854,240.456v-10.179h1.287v10.179H197.854z"/>
</g>
<line fill="none" stroke="#231F20" stroke-width="1.1065" stroke-miterlimit="10" x1="77.015" y1="223.571" x2="200.67" y2="223.571"/>
</svg>
